<svg id="e4bbe722-77af-4dff-9d23-13f94132c30a" xmlns="http://www.w3.org/2000/svg" viewBox="0 0 921.72 653.41"><defs><style>.cls-1{fill:#d0cde1;}.cls-2{fill:#f3be39;}.cls-3{opacity:0.2;isolation:isolate;}.cls-4{fill:#ffb8b8;}.cls-5{fill:#2f2e41;}.cls-6{fill:#3f3d56;}</style></defs><title>about-guy</title><ellipse class="cls-1" cx="85.34" cy="578.41" rx="85" ry="6"/><ellipse class="cls-1" cx="343.34" cy="642.91" rx="221" ry="10.5"/><g id="guy"><polygon class="cls-2" points="458.34 218.41 462.34 211.41 442.34 207.41 440.34 217.41 443.34 225.41 458.34 218.41"/><polygon class="cls-3" points="458.34 218.41 462.34 211.41 442.34 207.41 440.34 217.41 443.34 225.41 458.34 218.41"/><circle class="cls-4" cx="446.84" cy="187.91" r="26"/><polygon class="cls-4" points="424.84 187.91 403.84 222.91 434.84 240.91 450.84 203.91 424.84 187.91"/><path class="cls-2" d="M422.84,228.91l-27-11s-41,7-45,20-4,118-4,118-10,26,4,27c0,0-4,6,0,7s45,0,61,5,48,9,48,4v-9s7-7,3-19-9-38-9-38,30-66,27-74-39.62-32.74-39.62-32.74Z" transform="translate(0 0)"/><polygon class="cls-4" points="360.84 355.91 361.84 363.91 375.84 346.91 370.84 346.91 360.84 355.91"/><path class="cls-2" d="M422.84,228.91l-29-7s-6-5-6-11,9-15,15-21a5.54,5.54,0,0,1,4-1.67C412.8,188.19,420,196,420,196l-8,13.33-.36.59Z" transform="translate(0 0)"/><path class="cls-2" d="M445.2,217l17.14-5.56s5.5,21.5-.5,22.5-39-2-39-2Z" transform="translate(0 0)"/><path class="cls-5" d="M352.84,384.91l-13,74s-5,9-3,13,3,4,0,6-7,0-6,5a50.41,50.41,0,0,1,1,9l-28,96s-18,8-5,13,26,9,29,4,0-11,0-11l46-110s7-10,7-16,23-49,23-49,1,43,2,46-2,9-2,13-2,4,0,6,2,25,2,25-12,89-5,90,27-1,27-5-3-5-3-5l13-76s-1-5,1-9,2-4,2-6-1-3,0-4a4.86,4.86,0,0,0,1-3s-2-6-1-7,23-76,16-85S352.84,384.91,352.84,384.91Z" transform="translate(0 0)"/><path class="cls-5" d="M401.84,595.91l-7,16s-16,18-4,22,16,3,16,3,5,1,5,3,40,17,43,4-31-37-31-37v-12Z" transform="translate(0 0)"/><path class="cls-5" d="M324.71,603.32l1.51,17.39s9.41,22.18-3.24,22.13-16.12-2.28-16.12-2.28-5.06-.65-5.7,1.25-43.34,3.31-42-10,41.21-25.14,41.21-25.14l3.83-11.37Z" transform="translate(0 0)"/><path class="cls-5" d="M421.52,195c1.61-.11,2.68-1.86,3.12-3.53s.56-3.49,1.47-4.92c2.48-3.92,8.95-2.34,11.57-6.15,1.62-2.35,1.28-6.17,3.61-7.66,1.47-.94,3.35-.46,5,.13a54.28,54.28,0,0,1,17.11,10.2l2.09-1.7,2.61,5.21c1-1.22,3-.27,3.81,1.08s1.26,3.09,2.47,4.08c1.93,1.57,4.94.24,6.11-2s1-5.07.57-7.64a54.84,54.84,0,0,0-6.35-18.33l2.39-1.43-3.09-.44,1.18-2.68-3.23,0,1.28-2.29c-4.35,1.49-8.84-1.24-13-3.28-7-3.4-14.75-5-22.29-3.77a28.14,28.14,0,0,0-19.05,12.37c-3.29,5.17-5.19,12.67-3.54,18.86C416.84,186.69,423.36,187.57,421.52,195Z" transform="translate(0 0)"/><path class="cls-2" d="M356.84,233.91s-6-1-10,7-34,72-19,92,29,26,29,26l3,1,15-16-5-7s0-7-4-8-4,2-5-2,4-1-1-5-1-6-1-6Z" transform="translate(0 0)"/><polygon class="cls-4" points="462.84 367.41 461.84 375.41 447.84 358.41 452.84 358.41 462.84 367.41"/><path class="cls-2" d="M461.34,255.41s14-7,18,1,31.5,68,16.5,88-29,26-29,26l-3,1-15-16,5-7s0-7,4-8,4,2,5-2-4-1,1-5,1-6,1-6Z" transform="translate(0 0)"/><polygon class="cls-3" points="366.34 273.41 355.34 317.41 368.34 333.41 362.34 313.41 366.34 273.41"/><path class="cls-3" d="M420,196l-8,13.33c-5-1.74-5.44-13.39-5.15-21.07C412.8,188.19,420,196,420,196Z" transform="translate(0 0)"/></g><path class="cls-1" d="M250.11,615.68c.17,17.79-10.35,24.11-23.39,24.23h-.91l-1.8-.06c-11.78-.72-21-7.16-21.15-23.71-.17-17.13,21.51-38.95,23.13-40.57h0l.1-.09S249.93,597.88,250.11,615.68Z" transform="translate(0 0)"/><path class="cls-1" d="M216.12,529.84c.12,12.56-7.3,17-16.51,17.11H199c-.43,0-.85,0-1.27-.05-8.32-.5-14.82-5-14.94-16.73-.11-12.09,15.19-27.5,16.33-28.64h0l.06-.06S216,517.28,216.12,529.84Z" transform="translate(0 0)"/><ellipse class="cls-1" cx="199.34" cy="545.18" rx="60" ry="4.24"/><rect class="cls-6" x="524.97" y="279.81" width="396.75" height="202"/><g id="code"><rect class="cls-2" x="596.95" y="347.83" width="40.18" height="3.35"/><rect class="cls-2" x="650.52" y="347.83" width="40.18" height="3.35"/><rect class="cls-2" x="728.37" y="378.8" width="40.18" height="3.35"/><rect class="cls-2" x="782.78" y="378.8" width="40.18" height="3.35"/><rect class="cls-2" x="704.93" y="347.83" width="118.03" height="3.35"/><rect class="cls-2" x="596.95" y="378.8" width="118.03" height="3.35"/><rect class="cls-2" x="596.95" y="409.77" width="118.03" height="3.35"/><rect class="cls-2" x="740.92" y="409.77" width="82.03" height="3.35"/><polygon class="cls-2" points="585.65 361.96 571.52 347.83 585.65 333.69 588.48 336.52 577.17 347.83 588.48 359.14 585.65 361.96"/><polygon class="cls-2" points="861.04 427.26 858.21 424.43 869.52 413.12 858.21 401.81 861.04 398.99 875.17 413.12 861.04 427.26"/><rect class="cls-2" x="829.45" y="410.7" width="28.86" height="4" transform="translate(204.16 1100.61) rotate(-73.14)"/></g><path class="cls-1" d="M92.81,551.68l74.07-110.15L93,563.53l.16,12.4q-8.12.06-16.07-.27l3.68-159.32-.1-1.23.13-.24.35-15.06L0,282.05l81,106.5.28,3.18,2.78-120.37L14,149.26l70.26,101L83.55.83V0l0,.82,4.65,196.54,63.85-79.84L88.43,214.29,89.82,322l58.76-105.08L90,337.79l.78,59.87,85.44-146.37L91.08,418.55Z" transform="translate(0 0)"/></svg>