<svg id="f55c1cc7-a527-4cda-b37a-1ea88d078d90" xmlns="http://www.w3.org/2000/svg" viewBox="0 0 1034 797.87"><defs><style>.cls-1{fill:#3f3d56;}.cls-2{opacity:0.1;isolation:isolate;}.cls-3{fill:#2f2e41;}.cls-4{fill:#f3be39;}.cls-5{fill:#f2f2f2;}.cls-6{fill:#e6e6e6;}.cls-7{fill:#fff;}.cls-8{fill:#9f616a;}.cls-9{fill:#a0616a;}</style></defs><title>mail</title><path class="cls-1" d="M617.5,776.89c-159.89,0-289.5-129.62-289.5-289.5S457.61,197.88,617.5,197.88,907,327.5,907,487.38A289.51,289.51,0,0,1,617.5,776.89Zm0-576c-158,0-286.5,128.52-286.5,286.5s128.52,286.5,286.5,286.5S904,645.36,904,487.39,775.48,200.89,617.5,200.89Z" transform="translate(0 -25.97)"/><ellipse class="cls-1" cx="517" cy="758.87" rx="517" ry="39"/><ellipse class="cls-2" cx="372.5" cy="757.87" rx="349.5" ry="26"/><path class="cls-3" d="M935.16,731.91c-3.33,29.19,14.62,55.21,14.62,55.21s23.34-21.31,26.67-50.5-14.61-55.21-14.61-55.21S938.49,702.72,935.16,731.91Z" transform="translate(0 -25.97)"/><path class="cls-4" d="M947.89,730.4c12,26.81,2.77,57,2.77,57S922,774.2,910,747.38s-2.78-57-2.78-57S935.88,703.59,947.89,730.4Z" transform="translate(0 -25.97)"/><circle class="cls-5" cx="625.56" cy="645.28" r="112.06"/><path class="cls-4" d="M625.56,498.49l-27.61,69-99.81.8-32.52.26-77.17.62-32.51.26-77.17.62-32.5.27L169.1,571l-32.5.26-52.09.42L74.43,551,61.36,524.32l-7.22-14.78L50,498.49,74.78,420a37.81,37.81,0,0,1,36.06-26.43H561.6a37.82,37.82,0,0,1,35.62,25.14l2.87,8.09Z" transform="translate(0 -25.97)"/><rect class="cls-4" x="50" y="472.53" width="575.56" height="144.93"/><rect class="cls-2" x="50" y="472.53" width="575.56" height="144.93"/><rect class="cls-1" x="617.07" y="273.46" width="16.98" height="16.98"/><rect class="cls-1" x="662.91" y="636.79" width="16.98" height="16.98"/><g id="letter"><rect class="cls-5" x="152.83" y="285.5" width="368.52" height="463.76"/><rect class="cls-1" x="230.12" y="318.63" width="107.66" height="15.18"/><rect class="cls-6" x="173.53" y="380.74" width="324.36" height="6.9"/><rect class="cls-6" x="173.53" y="402.82" width="324.36" height="6.9"/><rect class="cls-6" x="173.53" y="424.91" width="324.36" height="6.9"/><rect class="cls-6" x="173.53" y="446.99" width="324.36" height="6.9"/><rect class="cls-6" x="173.53" y="469.07" width="324.36" height="6.9"/><rect class="cls-6" x="173.53" y="491.16" width="324.36" height="6.9"/><path class="cls-4" d="M187.33,372.2a23.47,23.47,0,1,1,23.47-23.46h0A23.49,23.49,0,0,1,187.33,372.2Zm0-44.16A20.7,20.7,0,1,0,208,348.74,20.7,20.7,0,0,0,187.33,328Z" transform="translate(0 -25.97)"/></g><polygon class="cls-1" points="625.56 761 50 761 50 472.53 124.53 530.5 553.79 527.74 625.56 472.53 625.56 761"/><rect class="cls-5" x="79.68" y="694.05" width="107.66" height="15.18"/><path class="cls-7" d="M136.17,691.51a12,12,0,1,1,12-12A12,12,0,0,1,136.17,691.51Zm0-22a10,10,0,1,0,10,10A10,10,0,0,0,136.17,669.51Z" transform="translate(0 -25.97)"/><g id="person"><circle class="cls-3" cx="775.7" cy="33.29" r="33.29"/><path class="cls-8" d="M752.18,79.58s-4.82,60.64-10.6,60.64S809,137.37,809,137.37s-30.82-40-15.41-52.8S752.18,79.58,752.18,79.58Z" transform="translate(0 -25.97)"/><path class="cls-2" d="M752.18,79.58s-4.82,60.64-10.6,60.64S809,137.37,809,137.37s-30.82-40-15.41-52.8S752.18,79.58,752.18,79.58Z" transform="translate(0 -25.97)"/><path class="cls-3" d="M838.65,212.26,805,221.89l47-2.15a41.4,41.4,0,0,1,29,9.77c8.37,7.25,15.12,18.75,8.62,35.75-13,34-33,66-33,66l-13,25s-27,4-28-4,0-12,5-16,8-12,8-16-1-8,2-10,4-5,4-11S852,266.89,852,266.89s-36.35-12.63-52-2-47.35,57.37-47.35,57.37a29.84,29.84,0,0,0-5.16,7.34,26,26,0,0,1-6.54,8.13c-2.91,2.55-.23,9.59.7,10.53s11,41,11,41,11,19-1,20-23,2-24,0a53.81,53.81,0,0,0-4-8c-3-5,0-16,0-16s-29-37-20-60,28-75,28-75l29-12,53-19Z" transform="translate(0 -25.97)"/><path class="cls-9" d="M636.65,104.26l-41-8s-10-34-22-30,8,38,8,38l57,26Z" transform="translate(0 -25.97)"/><path class="cls-9" d="M885.65,138.26l18,23s26-1,18,13-26,6-27,3-30-29-30-29Z" transform="translate(0 -25.97)"/><path class="cls-4" d="M792,107.89l-26,20-16-24-124-7v41c30.52-8.81,58.61-11.54,81,0,28.35,37.74,34.58,78.73,16.65,123.26L870,209.89c-43.86-16.34-64.22-40-58-72l51,18,31-23C866.28,114.23,825,102.53,792,107.89Z" transform="translate(0 -25.97)"/><path class="cls-3" d="M840.65,351.26s6,23,8,24,24,20,9,23-26,2-29-1-2-6-7-7-14-4-13-11,6-26,9-28S840.65,351.26,840.65,351.26Z" transform="translate(0 -25.97)"/><path class="cls-3" d="M753.65,402.26s9,7,4,20-12,27-12,27-8,25-21,21c-5.28-1.63-7.92-6.06-9.19-10.75a25.68,25.68,0,0,1,3.63-20.91l7.56-11.34,8-21Z" transform="translate(0 -25.97)"/><path class="cls-3" d="M731.7,499.07c17.93,0,40.11-5.94,61.72-27.4,52.91-52.55,103.18-57.82,103.68-57.87l-.19-2c-.5.05-51.48,5.39-104.9,58.44-27.44,27.26-55.77,28.93-74.7,25.53a93.22,93.22,0,0,1-35-14.11l-1.19,1.62a95.54,95.54,0,0,0,35.75,14.44A83,83,0,0,0,731.7,499.07Z" transform="translate(0 -25.97)"/><circle class="cls-3" cx="870.15" cy="417.79" r="12"/><circle class="cls-3" cx="785.15" cy="473.79" r="12"/><circle class="cls-9" cx="773.01" cy="52.15" r="24"/></g></svg>